<svg width="144" height="32" viewBox="0 0 144 32" fill="none" xmlns="http://www.w3.org/2000/svg">
<g clip-path="url(#clip0)">
<path d="M21.7781 14.8015C20.7855 13.1043 19.3532 11.7023 17.6302 10.7413C15.8809 9.7533 13.8942 9.25893 11.6702 9.25818C9.44625 9.25743 7.45276 9.7518 5.68978 10.7413C3.95796 11.6976 2.51795 13.1003 1.52151 14.8015C0.507928 16.5218 0.000756972 18.4647 0 20.6301C0 22.7692 0.507171 24.6982 1.52151 26.417C2.51754 28.1185 3.95765 29.5213 5.68978 30.4772C7.45428 31.4652 9.44776 31.9592 11.6702 31.9592C13.6982 31.9592 15.5043 31.5329 17.0886 30.6802C18.5944 29.8861 19.8712 28.7235 20.7982 27.3024V30.4975C20.7932 30.6595 20.8221 30.8207 20.8831 30.9709C20.9441 31.1212 21.0358 31.2572 21.1524 31.3705C21.2775 31.4875 21.4249 31.5784 21.5861 31.6377C21.7472 31.697 21.9187 31.7235 22.0903 31.7156C22.2524 31.7221 22.4141 31.6948 22.5649 31.6353C22.7157 31.5759 22.8523 31.4856 22.9658 31.3705C23.0767 31.2541 23.1633 31.117 23.2206 30.9672C23.2779 30.8173 23.3047 30.6577 23.2996 30.4975V20.6301C23.2996 18.4639 22.7924 16.521 21.7781 14.8015ZM19.6105 25.2384C18.8359 26.5885 17.714 27.7099 16.3597 28.4877C14.9835 29.2862 13.4204 29.6855 11.6702 29.6855C9.94812 29.6855 8.39217 29.2862 7.00237 28.4877C5.63588 27.7115 4.49998 26.5906 3.70954 25.2384C2.90336 23.8715 2.50066 22.3354 2.50141 20.6301C2.50141 18.9008 2.90412 17.3508 3.70954 15.9801C4.50036 14.6285 5.63619 13.508 7.00237 12.7319C8.39141 11.9334 9.94736 11.5341 11.6702 11.5341C13.4211 11.5341 14.9843 11.9334 16.3597 12.7319C17.7137 13.5096 18.8355 14.6305 19.6105 15.9801C20.4023 17.3508 20.7982 18.9008 20.7982 20.6301C20.7982 22.3362 20.4023 23.8723 19.6105 25.2384Z" fill="#FD5457"/>
<path d="M50.0987 10.721V30.4975C50.0894 30.7404 50.01 30.9755 49.8698 31.1748C49.7296 31.374 49.5346 31.5289 49.3082 31.621C49.0817 31.7131 48.8333 31.7384 48.5927 31.694C48.3521 31.6496 48.1295 31.5373 47.9515 31.3705C47.8349 31.2572 47.7431 31.1212 47.6822 30.9709C47.6212 30.8207 47.5923 30.6595 47.5972 30.4975V28.3953C46.765 29.4036 45.7376 30.2358 44.5758 30.8427C43.1171 31.6141 41.4866 31.9998 39.6842 31.9998C37.6836 31.9998 35.8914 31.6006 34.3079 30.8021C32.7337 30.0155 31.4219 28.7939 30.5302 27.2843C29.5984 25.7415 29.1328 23.8599 29.1336 21.6395V10.721C29.1287 10.5589 29.1577 10.3976 29.2187 10.2472C29.2796 10.0967 29.3713 9.96046 29.4878 9.84693C29.7326 9.62486 30.0522 9.50173 30.3837 9.50173C30.7152 9.50173 31.0348 9.62486 31.2796 9.84693C31.3962 9.96046 31.4878 10.0967 31.5488 10.2472C31.6097 10.3976 31.6387 10.5589 31.6339 10.721V21.6452C31.6339 23.4061 31.9881 24.8749 32.6966 26.0516C33.3694 27.1962 34.3708 28.1152 35.5728 28.6908C36.7839 29.2742 38.1525 29.5656 39.6786 29.5648C41.1789 29.5648 42.5263 29.2806 43.7208 28.7122C44.9153 28.1438 45.8615 27.3787 46.5594 26.417C47.2514 25.4663 47.6169 24.3195 47.6018 23.1463V10.721C47.593 10.5554 47.6201 10.3899 47.6812 10.2356C47.7423 10.0813 47.8361 9.94188 47.956 9.82663C48.2011 9.60733 48.5222 9.49091 48.8519 9.50181C49.0189 9.49273 49.186 9.51677 49.3435 9.57254C49.5011 9.62831 49.6458 9.71469 49.7694 9.82663C49.8827 9.94557 49.9703 10.0863 50.027 10.24C50.0836 10.3938 50.108 10.5575 50.0987 10.721Z" fill="#FD5457"/>
<path d="M68.0196 31.9592C65.7964 31.9592 63.8029 31.4652 62.0391 30.4772C60.3068 29.5216 58.8666 28.1188 57.8709 26.417C56.8558 24.6982 56.3486 22.7557 56.3494 20.5895C56.3501 18.4233 56.8573 16.4876 57.8709 14.7823C58.8715 13.0896 60.3109 11.6945 62.0391 10.7424C63.8021 9.75445 65.7956 9.26008 68.0196 9.25933C70.0203 9.25933 71.8196 9.67926 73.4176 10.5191C75.0155 11.359 76.2589 12.4823 77.1476 13.8891V1.21788C77.1394 1.05322 77.1668 0.888729 77.2279 0.735445C77.289 0.582161 77.3824 0.44363 77.5018 0.32915C77.7473 0.106315 78.071 -0.0119357 78.4034 -0.000176501C78.7924 -0.000176501 79.0983 0.108095 79.3208 0.324639C79.4347 0.443071 79.5228 0.583455 79.5799 0.7371C79.6369 0.890745 79.6616 1.05438 79.6524 1.21788V20.832C79.6251 22.9441 79.0952 24.8392 78.0627 26.5174C77.0524 28.1797 75.6232 29.5515 73.916 30.4975C72.1795 31.472 70.2141 31.9592 68.0196 31.9592ZM68.0196 29.6855C69.7705 29.6855 71.3336 29.2863 72.709 28.4878C74.0632 27.7096 75.185 26.5883 75.9599 25.2385C76.7517 23.8715 77.1476 22.3215 77.1476 20.5884C77.1476 18.8553 76.7517 17.3139 75.9599 15.9643C75.1804 14.6232 74.0592 13.5095 72.709 12.7353C71.3329 11.9368 69.7697 11.5376 68.0196 11.5376C66.2975 11.5376 64.7415 11.9368 63.3517 12.7353C61.9893 13.5074 60.8541 14.6202 60.0589 15.9632C59.2527 17.3166 58.85 18.8579 58.8508 20.5873C58.8515 22.3166 59.2542 23.8666 60.0589 25.2373C60.8494 26.5895 61.9852 27.7104 63.3517 28.4866C64.74 29.2859 66.296 29.6855 68.0196 29.6855Z" fill="#FD5457"/>
<path d="M89.1902 4.83251C88.9389 4.8365 88.6893 4.79 88.4566 4.69581C88.2238 4.60162 88.0126 4.46167 87.8356 4.28438C87.6512 4.10889 87.5056 3.89727 87.4078 3.66294C87.3101 3.42861 87.2625 3.17667 87.2679 2.92309C87.2679 2.30052 87.4692 1.8336 87.8719 1.52232C88.2564 1.21734 88.7345 1.05254 89.2265 1.0554C89.7096 1.05442 90.1781 1.21938 90.5527 1.52232C90.9555 1.8336 91.1568 2.30052 91.1568 2.92309C91.163 3.17626 91.1162 3.42795 91.0194 3.66226C90.9227 3.89656 90.7781 4.1084 90.5948 4.28438C90.4102 4.4655 90.1906 4.60749 89.9491 4.70171C89.7077 4.79594 89.4495 4.84044 89.1902 4.83251ZM89.2322 31.7155C89.0672 31.7209 88.9027 31.6932 88.7488 31.6339C88.5948 31.5745 88.4545 31.4849 88.3363 31.3704C88.2197 31.2572 88.128 31.1211 88.067 30.9709C88.006 30.8206 87.9771 30.6594 87.9821 30.4975V10.7209C87.9733 10.5554 88.0004 10.3898 88.0615 10.2356C88.1226 10.0813 88.2163 9.9418 88.3363 9.82655C88.5813 9.60705 88.9025 9.49059 89.2322 9.50174C89.399 9.49274 89.5659 9.51683 89.7233 9.5726C89.8806 9.62837 90.0251 9.7147 90.1485 9.82655C90.2629 9.94497 90.3515 10.0855 90.4089 10.2393C90.4664 10.3932 90.4913 10.5571 90.4824 10.7209V30.4975C90.4906 30.6615 90.4638 30.8255 90.4036 30.9785C90.3434 31.1315 90.2513 31.2701 90.1333 31.3852C90.0153 31.5003 89.8741 31.5892 89.719 31.6461C89.5638 31.7031 89.3983 31.7267 89.2333 31.7155H89.2322Z" fill="#FD5457"/>
<path d="M115.079 9.8269C114.955 9.71504 114.811 9.62872 114.653 9.57295C114.496 9.51718 114.329 9.49309 114.162 9.50208C113.832 9.49088 113.511 9.60733 113.265 9.8269C113.145 9.94215 113.052 10.0816 112.99 10.2359C112.929 10.3902 112.902 10.5557 112.911 10.7213V30.4978C112.906 30.6597 112.935 30.8209 112.996 30.9712C113.057 31.1215 113.149 31.2575 113.265 31.3708C113.384 31.4853 113.524 31.5749 113.678 31.6342C113.832 31.6935 113.997 31.7213 114.162 31.7159C114.327 31.7271 114.493 31.7034 114.648 31.6465C114.803 31.5895 114.944 31.5006 115.062 31.3855C115.18 31.2704 115.272 31.1318 115.333 30.9788C115.393 30.8258 115.42 30.6619 115.411 30.4978V10.7213C115.42 10.5575 115.396 10.3936 115.338 10.2398C115.281 10.0859 115.193 9.94541 115.079 9.8269Z" fill="#FD5457"/>
<path d="M115.701 2.76087C115.701 3.89923 115.076 4.46803 113.825 4.46728C113.417 4.47012 113.017 4.34935 112.679 4.12104C112.311 3.87775 111.956 3.61418 111.617 3.33156C111.237 3.02416 110.825 2.75939 110.387 2.54207C109.873 2.30066 109.309 2.18245 108.74 2.19695C107.573 2.19695 106.58 2.42703 105.76 2.88719C104.94 3.34734 104.315 4.07856 103.884 5.08082C103.454 6.08234 103.239 7.40867 103.238 9.05982V10.3196H108.74C108.89 10.3137 109.038 10.3376 109.178 10.3899C109.318 10.4422 109.445 10.5218 109.553 10.6241C109.753 10.8394 109.863 11.1212 109.863 11.4136C109.863 11.7061 109.753 11.9878 109.553 12.2031C109.445 12.3054 109.318 12.385 109.178 12.4373C109.038 12.4896 108.89 12.5135 108.74 12.5076H103.238V30.4977C103.242 30.6614 103.211 30.8241 103.147 30.9747C103.082 31.1254 102.985 31.2604 102.863 31.3706C102.615 31.6 102.286 31.7238 101.947 31.7157C101.782 31.7212 101.617 31.6934 101.463 31.6341C101.309 31.5748 101.168 31.4852 101.05 31.3706C100.933 31.2574 100.842 31.1213 100.781 30.9711C100.72 30.8208 100.691 30.6596 100.696 30.4977V12.5099H97.445C97.2958 12.5158 97.147 12.4919 97.0073 12.4396C96.8677 12.3873 96.74 12.3076 96.632 12.2053C96.4326 11.9901 96.322 11.7083 96.322 11.4159C96.322 11.1234 96.4326 10.8416 96.632 10.6264C96.74 10.5241 96.8677 10.4444 97.0073 10.3921C97.147 10.3398 97.2958 10.3159 97.445 10.3219H100.696V9.05531C100.677 7.50884 100.953 5.97279 101.509 4.52819C102.033 3.18294 102.966 2.03315 104.178 1.2383C105.415 0.411219 107.09 -0.00231934 109.201 -0.00231934C110.195 -0.00031237 111.185 0.0948485 112.16 0.281895C113.16 0.471371 114.001 0.769119 114.682 1.17514C115.364 1.58116 115.703 2.10974 115.701 2.76087Z" fill="#FD5457"/>
<path d="M142 14.5582C141.146 12.957 139.862 11.6221 138.291 10.701C136.707 9.76562 134.887 9.29832 132.83 9.29907C130.747 9.29907 128.899 9.7878 127.287 10.7653C125.682 11.7329 124.371 13.1151 123.495 14.7646C122.577 16.4555 122.119 18.4108 122.119 20.6304C122.119 22.8237 122.605 24.7729 123.578 26.4782C124.521 28.155 125.913 29.5396 127.599 30.4786C129.308 31.4396 131.26 31.92 133.456 31.92C134.762 31.92 136.13 31.6629 137.561 31.1486C138.991 30.6343 140.151 29.9854 141.041 29.2019C141.319 28.9583 141.451 28.6873 141.437 28.3888C141.422 28.0922 141.263 27.8249 140.958 27.5767C140.732 27.3869 140.44 27.2922 140.145 27.3128C139.84 27.3215 139.549 27.4448 139.332 27.6579C138.693 28.2549 137.825 28.7358 136.727 29.1004C135.674 29.4584 134.569 29.6436 133.456 29.6486C131.732 29.6486 130.204 29.2628 128.871 28.4914C127.553 27.7355 126.471 26.632 125.745 25.303C125.085 24.0885 124.709 22.7421 124.644 21.3635H142.13C142.45 21.3774 142.764 21.2683 143.005 21.059C143.118 20.9521 143.205 20.8224 143.263 20.6788C143.32 20.5352 143.346 20.381 143.338 20.2266C143.335 18.0898 142.889 16.2003 142 14.5582ZM124.696 19.2488C124.814 18.0875 125.149 16.9581 125.683 15.9183C126.347 14.6149 127.356 13.515 128.6 12.7356C129.837 11.9641 131.247 11.5784 132.83 11.5784C134.496 11.5784 135.948 11.9641 137.186 12.7356C138.423 13.5076 139.413 14.613 140.041 15.9228C140.546 16.9672 140.847 18.0974 140.927 19.2533L124.696 19.2488Z" fill="#FD5457"/>
<path d="M17.0263 19.5026C16.917 19.4958 16.8095 19.5322 16.7272 19.6038C16.6449 19.6754 16.5944 19.7765 16.5868 19.8849V21.6455C16.5944 21.7539 16.6449 21.855 16.7272 21.9266C16.8095 21.9983 16.917 22.0346 17.0263 22.0278C17.1353 22.0343 17.2425 21.9978 17.3246 21.9262C17.4067 21.8546 17.457 21.7537 17.4645 21.6455V19.8861C17.4572 19.7776 17.4071 19.6765 17.325 19.6046C17.2428 19.5328 17.1355 19.4961 17.0263 19.5026ZM15.2935 23.5628C15.1843 23.5696 15.0768 23.5332 14.9945 23.4616C14.9122 23.39 14.8617 23.2889 14.8541 23.1805V18.359C14.8614 18.2503 14.9117 18.149 14.9941 18.0771C15.0765 18.0052 15.1841 17.9687 15.2935 17.9755C15.4028 17.969 15.5101 18.0057 15.5922 18.0775C15.6744 18.1494 15.7245 18.2505 15.7318 18.359V23.1771C15.7251 23.2859 15.6752 23.3877 15.593 23.46C15.5108 23.5323 15.4031 23.5693 15.2935 23.5628ZM13.5824 25.0933C13.4732 25.0998 13.3658 25.0631 13.2837 24.9913C13.2016 24.9194 13.1514 24.8183 13.1441 24.7098V16.8285C13.1514 16.7202 13.2016 16.6191 13.2838 16.5474C13.3659 16.4758 13.4733 16.4394 13.5824 16.4462C13.6914 16.4397 13.7987 16.4762 13.8807 16.5478C13.9628 16.6194 14.0131 16.7203 14.0207 16.8285V24.7064C14.0134 24.8149 13.9632 24.916 13.8811 24.9879C13.799 25.0597 13.6916 25.0964 13.5824 25.0899V25.0933ZM11.8713 22.0335C11.7622 22.04 11.655 22.0035 11.5729 21.9319C11.4909 21.8603 11.4406 21.7594 11.433 21.6511V19.8917C11.4406 19.7835 11.4909 19.6826 11.5729 19.611C11.655 19.5394 11.7622 19.5029 11.8713 19.5094C11.9803 19.5029 12.0875 19.5394 12.1696 19.611C12.2517 19.6826 12.302 19.7835 12.3096 19.8917V21.6455C12.3025 21.7541 12.2525 21.8556 12.1704 21.9277C12.0882 21.9997 11.9807 22.0366 11.8713 22.0301V22.0335ZM10.1386 24.1369C10.0295 24.1434 9.92231 24.1069 9.84024 24.0353C9.75816 23.9637 9.70786 23.8628 9.70028 23.7545V17.7883C9.70786 17.6801 9.75816 17.5792 9.84024 17.5076C9.92231 17.436 10.0295 17.3995 10.1386 17.406C10.2476 17.3995 10.3548 17.436 10.4369 17.5076C10.519 17.5792 10.5693 17.6801 10.5769 17.7883V23.7545C10.5684 23.8622 10.5177 23.9622 10.4358 24.0331C10.3538 24.104 10.2471 24.14 10.1386 24.1335V24.1369ZM7.11144 19.8917V21.8417C7.10414 21.9501 7.05393 22.0512 6.97178 22.1228C6.88964 22.1945 6.78226 22.2309 6.67315 22.2241C6.56404 22.2309 6.45666 22.1945 6.37452 22.1228C6.29237 22.0512 6.24216 21.9501 6.23486 21.8417V19.8883C6.24216 19.78 6.29237 19.6789 6.37452 19.6073C6.45666 19.5356 6.56404 19.4992 6.67315 19.506C6.78219 19.4995 6.8894 19.536 6.97148 19.6076C7.05355 19.6792 7.10385 19.7801 7.11144 19.8883V19.8917ZM8.40586 25.0933C8.29664 25.0998 8.18926 25.0631 8.10715 24.9913C8.02505 24.9194 7.97487 24.8183 7.96757 24.7098V16.8285C7.97516 16.7203 8.02546 16.6194 8.10753 16.5478C8.18961 16.4762 8.29682 16.4397 8.40586 16.4462C8.5149 16.4397 8.62211 16.4762 8.70419 16.5478C8.78626 16.6194 8.83656 16.7203 8.84414 16.8285V24.7064C8.83685 24.8149 8.78667 24.916 8.70456 24.9879C8.62246 25.0597 8.51508 25.0964 8.40586 25.0899V25.0933Z" fill="#FD5457"/>
</g>
<defs>
<clipPath id="clip0">
<rect width="143.333" height="32" fill="white"/>
</clipPath>
</defs>
</svg>
