<svg width="18" height="14" viewBox="0 0 18 14" fill="none" xmlns="http://www.w3.org/2000/svg">
<path fill-rule="evenodd" clip-rule="evenodd" d="M15.75 0H1.75C1.14046 0 0.601098 0.315834 0.287492 0.791934C0.387066 0.821831 0.483636 0.867889 0.573462 0.930768L8.75 6.65434L16.9265 0.930768C17.0164 0.86789 17.1129 0.821834 17.2125 0.791937C16.8989 0.315835 16.3595 0 15.75 0ZM17.5 2.97066L9.32346 8.69423C8.97914 8.93526 8.52086 8.93526 8.17654 8.69423L0 2.97066V12.25C0 13.2125 0.7875 14 1.75 14H15.75C16.7125 14 17.5 13.2125 17.5 12.25V2.97066Z" fill="white"/>
</svg>
