<svg width="20" height="20" viewBox="0 0 20 20" fill="none" xmlns="http://www.w3.org/2000/svg">
<path d="M10.0001 0.000244141C4.47724 0.000244141 0 4.47746 0 10.0002C0 14.9536 3.60522 19.0557 8.33225 19.8501V12.0865H5.91994V9.29274H8.33225V7.23271C8.33225 4.84248 9.79213 3.53995 11.9247 3.53995C12.9461 3.53995 13.8238 3.61606 14.0786 3.64958V6.148L12.5995 6.14872C11.44 6.14872 11.2165 6.6996 11.2165 7.50827V9.29131H13.9832L13.6223 12.0851H11.2165V19.9169C16.1642 19.3147 20 15.108 20 9.99739C20 4.47746 15.5228 0.000244141 10.0001 0.000244141Z" fill="white"/>
</svg>
