<svg width="20" height="20" viewBox="0 0 20 20" fill="none" xmlns="http://www.w3.org/2000/svg">
<path d="M4.43242 12.0874L3.73625 14.6863L1.19176 14.7402C0.431328 13.3297 0 11.716 0 10.0012C0 8.3429 0.403281 6.77914 1.11812 5.40222H1.11867L3.38398 5.81754L4.37633 8.06927C4.16863 8.67478 4.05543 9.32479 4.05543 10.0012C4.05551 10.7352 4.18847 11.4385 4.43242 12.0874Z" fill="#FBBB00"/>
<path d="M19.8252 8.13184C19.94 8.73676 19.9999 9.36148 19.9999 9.99995C19.9999 10.7159 19.9246 11.4142 19.7812 12.0879C19.2944 14.3802 18.0224 16.3818 16.2603 17.7983L16.2598 17.7977L13.4065 17.6521L13.0027 15.1313C14.1719 14.4456 15.0857 13.3725 15.567 12.0879H10.2197V8.13184H15.645H19.8252Z" fill="#518EF8"/>
<path d="M16.2598 17.7976L16.2603 17.7982C14.5466 19.1756 12.3697 19.9998 9.99989 19.9998C6.19165 19.9998 2.88067 17.8712 1.19165 14.7389L4.43231 12.0862C5.2768 14.34 7.45098 15.9444 9.99989 15.9444C11.0955 15.9444 12.1219 15.6482 13.0026 15.1312L16.2598 17.7976Z" fill="#28B446"/>
<path d="M16.383 2.30243L13.1434 4.95461C12.2319 4.38485 11.1544 4.05571 10 4.05571C7.39344 4.05571 5.17859 5.73371 4.37641 8.06836L1.11871 5.40133H1.11816C2.78246 2.19255 6.1352 0.000244141 10 0.000244141C12.4264 0.000244141 14.6511 0.86454 16.383 2.30243Z" fill="#F14336"/>
</svg>
