<svg width="15" height="14" viewBox="0 0 15 14" fill="none" xmlns="http://www.w3.org/2000/svg">
<path d="M10.3156 4.42114C11.4881 4.42114 12.6126 4.88693 13.4417 5.71604C14.2708 6.54515 14.7366 7.66966 14.7366 8.8422V14.0001H11.7893V8.8422C11.7893 8.45135 11.634 8.07651 11.3576 7.80014C11.0813 7.52377 10.7064 7.36851 10.3156 7.36851C9.92474 7.36851 9.5499 7.52377 9.27353 7.80014C8.99716 8.07651 8.8419 8.45135 8.8419 8.8422V14.0001H5.89453V8.8422C5.89453 7.66966 6.36032 6.54515 7.18943 5.71604C8.01854 4.88693 9.14305 4.42114 10.3156 4.42114Z" fill="white"/>
<path d="M2.94737 5.15808H0V14.0002H2.94737V5.15808Z" fill="white"/>
<path d="M1.47368 2.94737C2.28758 2.94737 2.94737 2.28758 2.94737 1.47368C2.94737 0.659791 2.28758 0 1.47368 0C0.659791 0 0 0.659791 0 1.47368C0 2.28758 0.659791 2.94737 1.47368 2.94737Z" fill="white"/>
</svg>
