<svg width="28" height="30" viewBox="0 0 28 30" fill="none" xmlns="http://www.w3.org/2000/svg">
<path d="M23.4 13.6H3.8C2.2536 13.6 1 14.8536 1 16.4V26.2C1 27.7464 2.2536 29 3.8 29H23.4C24.9464 29 26.2 27.7464 26.2 26.2V16.4C26.2 14.8536 24.9464 13.6 23.4 13.6Z" stroke="#FEFEFE" stroke-width="2" stroke-linecap="round" stroke-linejoin="round"/>
<path d="M6.59998 13.6V8C6.59998 6.14348 7.33747 4.36301 8.65023 3.05025C9.96298 1.7375 11.7435 1 13.6 1C15.4565 1 17.237 1.7375 18.5497 3.05025C19.8625 4.36301 20.6 6.14348 20.6 8V13.6" stroke="#FEFEFE" stroke-width="2" stroke-linecap="round" stroke-linejoin="round"/>
</svg>
