<svg width="16" height="14" viewBox="0 0 16 14" fill="none" xmlns="http://www.w3.org/2000/svg">
<path d="M14.2267 3.41862C13.6146 2.37196 12.7313 1.50732 11.6687 0.914647C10.5898 0.305347 9.36464 0.000464227 7.99308 5.2813e-07C6.62152 -0.000463171 5.39211 0.30442 4.30486 0.914647C3.23682 1.50443 2.34875 2.36948 1.73423 3.41862C1.10914 4.47956 0.796365 5.67776 0.795898 7.01322C0.795898 8.33244 1.10868 9.52206 1.73423 10.5821C2.3485 11.6314 3.23663 12.4965 4.30486 13.086C5.39305 13.6953 6.62245 14 7.99308 14C9.24373 14 10.3576 13.7371 11.3347 13.2112C12.2633 12.7215 13.0507 12.0045 13.6224 11.1281V13.0986C13.6193 13.1984 13.6372 13.2978 13.6748 13.3905C13.7124 13.4832 13.7689 13.5671 13.8409 13.6369C13.918 13.7091 14.0089 13.7652 14.1083 13.8017C14.2077 13.8383 14.3134 13.8546 14.4193 13.8498C14.5193 13.8538 14.619 13.8369 14.712 13.8003C14.805 13.7636 14.8892 13.7079 14.9592 13.6369C15.0276 13.5651 15.081 13.4806 15.1163 13.3882C15.1517 13.2958 15.1682 13.1974 15.165 13.0986V7.01322C15.165 5.6773 14.8523 4.4791 14.2267 3.41862ZM12.8899 9.85522C12.4122 10.6878 11.7204 11.3794 10.8851 11.8591C10.0364 12.3516 9.0724 12.5978 7.99308 12.5978C6.93103 12.5978 5.97145 12.3516 5.11435 11.8591C4.27162 11.3804 3.57109 10.6891 3.08362 9.85522C2.58644 9.01222 2.33808 8.06489 2.33855 7.01322C2.33855 5.94671 2.58691 4.99079 3.08362 4.14547C3.57132 3.31192 4.27181 2.62094 5.11435 2.14229C5.97099 1.64984 6.93056 1.40362 7.99308 1.40362C9.07286 1.40362 10.0369 1.64984 10.8851 2.14229C11.7202 2.62192 12.412 3.3132 12.8899 4.14547C13.3782 4.99079 13.6224 5.94671 13.6224 7.01322C13.6224 8.06535 13.3782 9.01268 12.8899 9.85522Z" fill="#FFB8B8"/>
<path d="M11.2958 6.31805C11.2284 6.31385 11.1621 6.33629 11.1114 6.38046C11.0606 6.42464 11.0295 6.48696 11.0248 6.55385V7.6396C11.0295 7.70648 11.0606 7.76881 11.1114 7.81298C11.1621 7.85715 11.2284 7.87959 11.2958 7.87539C11.3631 7.8794 11.4292 7.85688 11.4798 7.81272C11.5304 7.76857 11.5614 7.70635 11.5661 7.6396V6.55454C11.5616 6.48766 11.5307 6.42527 11.48 6.38097C11.4294 6.33666 11.3632 6.31405 11.2958 6.31805ZM10.2272 8.82203C10.1599 8.82623 10.0936 8.8038 10.0428 8.75962C9.99202 8.71545 9.9609 8.65312 9.95623 8.58624V5.61277C9.96073 5.54576 9.99177 5.48326 10.0426 5.43893C10.0934 5.39461 10.1598 5.37208 10.2272 5.37628C10.2946 5.37227 10.3608 5.39489 10.4114 5.43919C10.4621 5.4835 10.493 5.54589 10.4975 5.61277V8.58415C10.4934 8.65128 10.4626 8.71402 10.4119 8.75862C10.3612 8.80322 10.2948 8.82602 10.2272 8.82203ZM9.17195 9.76589C9.10459 9.7699 9.03837 9.74728 8.98773 9.70298C8.9371 9.65867 8.90615 9.59628 8.90165 9.5294V4.66891C8.90615 4.60209 8.93712 4.53976 8.98778 4.49557C9.03843 4.45137 9.10466 4.42892 9.17195 4.43312C9.23919 4.4291 9.30531 4.45162 9.35593 4.49578C9.40655 4.53994 9.43757 4.60215 9.44224 4.66891V9.52732C9.43774 9.59419 9.4068 9.65659 9.35616 9.70089C9.30553 9.74519 9.23931 9.76781 9.17195 9.7638V9.76589ZM8.11667 7.87887C8.04943 7.88288 7.9833 7.86036 7.93269 7.8162C7.88207 7.77204 7.85105 7.70983 7.84637 7.64307V6.55802C7.85105 6.49127 7.88207 6.42905 7.93269 6.38489C7.9833 6.34074 8.04943 6.31821 8.11667 6.32223C8.18392 6.31821 8.25004 6.34074 8.30065 6.38489C8.35127 6.42905 8.38229 6.49127 8.38697 6.55802V7.6396C8.38264 7.7066 8.35177 7.76917 8.30112 7.81362C8.25046 7.85807 8.18414 7.88078 8.11667 7.87678V7.87887ZM7.04809 9.17606C6.98084 9.18007 6.91472 9.15755 6.86411 9.1134C6.81349 9.06924 6.78247 9.00703 6.77779 8.94027V5.26082C6.78247 5.19407 6.81349 5.13185 6.86411 5.08769C6.91472 5.04354 6.98084 5.02102 7.04809 5.02503C7.11533 5.02102 7.18145 5.04354 7.23207 5.08769C7.28269 5.13185 7.31371 5.19407 7.31838 5.26082V8.94027C7.31318 9.00665 7.28193 9.06834 7.23138 9.11206C7.18082 9.15577 7.11499 9.17801 7.04809 9.17398V9.17606ZM5.18122 6.55802V7.76062C5.17672 7.82744 5.14575 7.88977 5.09509 7.93396C5.04443 7.97815 4.97821 8.00061 4.91092 7.99641C4.84363 8.00061 4.77741 7.97815 4.72675 7.93396C4.67609 7.88977 4.64512 7.82744 4.64062 7.76062V6.55593C4.64512 6.48911 4.67609 6.42678 4.72675 6.38259C4.77741 6.3384 4.84363 6.31594 4.91092 6.32014C4.97817 6.31613 5.04429 6.33865 5.0949 6.3828C5.14552 6.42696 5.17654 6.48918 5.18122 6.55593V6.55802ZM5.9795 9.76589C5.91215 9.7699 5.84593 9.74728 5.79529 9.70298C5.74465 9.65867 5.71371 9.59628 5.70921 9.5294V4.66891C5.71388 4.60215 5.74491 4.53994 5.79552 4.49578C5.84614 4.45162 5.91226 4.4291 5.9795 4.43312C6.04675 4.4291 6.11287 4.45162 6.16349 4.49578C6.2141 4.53994 6.24512 4.60215 6.2498 4.66891V9.52732C6.2453 9.59419 6.21436 9.65659 6.16372 9.70089C6.11308 9.74519 6.04686 9.76781 5.9795 9.7638V9.76589Z" fill="#FFB8B8"/>
</svg>
