<svg width="30" height="30" viewBox="0 0 30 30" fill="none" xmlns="http://www.w3.org/2000/svg">
<path d="M17.6982 17.6983C17.3486 18.0734 16.9271 18.3743 16.4587 18.583C15.9904 18.7917 15.4848 18.9039 14.9721 18.9129C14.4594 18.922 13.9502 18.8277 13.4748 18.6356C12.9993 18.4436 12.5675 18.1578 12.2049 17.7952C11.8423 17.4326 11.5565 17.0007 11.3645 16.5253C11.1724 16.0499 11.0781 15.5406 11.0872 15.028C11.0962 14.5153 11.2084 14.0097 11.4171 13.5413C11.6258 13.073 11.9267 12.6515 12.3018 12.3019M22.56 22.5601C20.3844 24.2185 17.7352 25.1372 15 25.1819C6.09091 25.1819 1 15.0001 1 15.0001C2.58313 12.0498 4.7789 9.47213 7.44 7.44009L22.56 22.5601ZM12.3273 5.12372C13.2033 4.91866 14.1003 4.81616 15 4.81827C23.9091 4.81827 29 15.0001 29 15.0001C28.2274 16.4454 27.3061 17.8061 26.2509 19.0601L12.3273 5.12372Z" stroke="#FEFEFE" stroke-width="2" stroke-linecap="round" stroke-linejoin="round"/>
<path d="M1 1L29 29" stroke="#FEFEFE" stroke-width="2" stroke-linecap="round" stroke-linejoin="round"/>
</svg>
