<svg width="30" height="30" viewBox="0 0 30 30" fill="none" xmlns="http://www.w3.org/2000/svg">
<path d="M15 29C22.732 29 29 22.732 29 15C29 7.26801 22.732 1 15 1C7.26801 1 1 7.26801 1 15C1 22.732 7.26801 29 15 29Z" stroke="#FEFEFE" stroke-width="2" stroke-linecap="round" stroke-linejoin="round"/>
<path d="M10.9258 10.8C11.2549 9.86431 11.9046 9.07533 12.7597 8.57277C13.6148 8.0702 14.6202 7.88649 15.5978 8.05418C16.5754 8.22186 17.4621 8.73011 18.1009 9.48892C18.7397 10.2477 19.0893 11.2081 19.0878 12.2C19.0878 15 14.8878 16.4 14.8878 16.4" stroke="#FEFEFE" stroke-width="2" stroke-linecap="round" stroke-linejoin="round"/>
<path d="M15 22H15.014" stroke="#FEFEFE" stroke-width="2" stroke-linecap="round" stroke-linejoin="round"/>
</svg>
