<svg width="195" height="165" viewBox="0 0 195 165" fill="none" xmlns="http://www.w3.org/2000/svg">
<path d="M38.1888 19.4455C37.7953 19.4889 37.416 19.6178 37.0778 19.8233C36.7396 20.0288 36.4506 20.3058 36.2313 20.6348C36.0119 20.9638 35.8675 21.3368 35.8082 21.7276C35.7488 22.1183 35.7761 22.5173 35.8879 22.8964L28.0574 28.4819L32.725 30.2749L39.4455 24.6959C40.071 24.4661 40.5904 24.0152 40.9052 23.4287C41.22 22.8422 41.3083 22.1608 41.1534 21.5136C40.9985 20.8664 40.6112 20.2984 40.0648 19.9173C39.5184 19.5361 38.8509 19.3683 38.1888 19.4455L38.1888 19.4455Z" fill="#FFB8B8"/>
<path d="M37.4612 27.8591L27.7482 37.6146C26.417 38.9429 24.6617 39.7638 22.7873 39.9345L10.7851 41.0276C10.3451 41.0695 9.90117 41.023 9.4795 40.8907C9.05783 40.7584 8.667 40.5431 8.3301 40.2575C7.86401 39.8681 7.51743 39.3554 7.33015 38.7782C7.14288 38.201 7.12252 37.5828 7.2714 36.9946C7.42029 36.4064 7.73239 35.872 8.17184 35.4529C8.61129 35.0338 9.16028 34.7469 9.75573 34.6252L22.0173 32.0191L33.1805 23.8052C33.3357 23.7181 33.511 23.6729 33.6891 23.6742C33.8672 23.6755 34.0418 23.7233 34.1957 23.8128L37.2315 26.2952C37.4141 26.3951 37.5609 26.5496 37.6511 26.737C37.7413 26.9244 37.7705 27.1352 37.7345 27.34C37.6991 27.537 37.6037 27.7183 37.4612 27.8591Z" fill="#4A382E"/>
<path d="M153.915 33.1014C153.987 32.4355 153.852 31.7634 153.528 31.1767C153.205 30.5899 152.708 30.1169 152.105 29.8218L91.6571 0.33094C91.2727 0.143216 90.855 0.0329061 90.4279 0.00631077C90.0008 -0.0202845 89.5726 0.0373536 89.1678 0.175935C88.763 0.314517 88.3896 0.531329 88.0687 0.81399C87.7479 1.09665 87.4859 1.43962 87.2979 1.82333L87.2968 1.8256L64.6247 48.1288C64.2463 48.9043 64.1915 49.798 64.4722 50.6139C64.7528 51.4298 65.3462 52.1013 66.1221 52.4812L126.57 81.9721C127.347 82.3498 128.243 82.4046 129.06 82.1244C129.877 81.8442 130.55 81.252 130.931 80.4775L153.603 34.1743C153.768 33.8375 153.874 33.4744 153.915 33.1014Z" fill="#E6E6E6"/>
<path d="M118.502 135.872H40.0667C39.0792 135.87 38.1325 135.478 37.4343 134.781C36.736 134.084 36.3433 133.139 36.3422 132.154V25.8682C36.3433 24.8825 36.736 23.9375 37.4343 23.2405C38.1325 22.5436 39.0792 22.1515 40.0667 22.1504H118.502C119.489 22.1515 120.436 22.5436 121.134 23.2405C121.832 23.9375 122.225 24.8825 122.226 25.8682V132.154C122.225 133.139 121.832 134.084 121.134 134.781C120.436 135.478 119.489 135.87 118.502 135.872Z" fill="#FEFEFE"/>
<path d="M60.8705 53.8437C63.6967 53.8437 65.9877 51.5568 65.9877 48.7358C65.9877 45.9147 63.6967 43.6278 60.8705 43.6278C58.0444 43.6278 55.7533 45.9147 55.7533 48.7358C55.7533 51.5568 58.0444 53.8437 60.8705 53.8437Z" fill="#E6E6E6"/>
<path d="M53.0707 62.6967C53.7938 63.107 54.5505 63.4551 55.3327 63.7373L55.471 63.785C57.0465 64.3372 58.7046 64.6183 60.3745 64.6164C60.7105 64.6164 61.0341 64.6047 61.3365 64.5818C62.0723 64.5368 62.8037 64.4362 63.5243 64.2807C63.9197 64.1945 64.3139 64.0913 64.6953 63.9745C64.7876 63.9473 64.873 63.9206 64.9665 63.8914C66.521 63.3883 67.9816 62.6328 69.2898 61.6552C69.1847 61.457 69.0698 61.2641 68.9453 61.0775C68.2727 60.0517 67.3544 59.2094 66.2736 58.6271C65.1928 58.0447 63.9835 57.7406 62.7553 57.7422H60.062C58.6414 57.7425 57.2509 58.1503 56.0559 58.9171C54.861 59.6839 53.912 60.7773 53.322 62.0673C53.2277 62.2727 53.1438 62.4828 53.0707 62.6967Z" fill="#E6E6E6"/>
<path d="M62.6069 64.1532C62.435 64.1659 62.2696 64.2238 62.1274 64.3211C62.8495 64.2762 63.5672 64.1768 64.2742 64.0237L62.6069 64.1532Z" fill="#4A382E"/>
<path d="M61.1803 34.8744C57.8845 34.8747 54.681 35.961 52.0671 37.9647C49.4531 39.9684 47.5748 42.7774 46.7239 45.9556C45.8729 49.1339 46.0968 52.5036 47.3608 55.5419C48.6249 58.5801 50.8583 61.1169 53.7145 62.7584C54.4727 63.1967 55.2686 63.5664 56.0927 63.8633L56.2327 63.9117C57.8225 64.4689 59.4954 64.7525 61.1803 64.7505C61.5062 64.7505 61.8321 64.7398 62.1525 64.7156C62.8944 64.67 63.6318 64.5685 64.3583 64.4118C64.7651 64.3231 65.1637 64.2182 65.5407 64.1026C65.6323 64.0757 65.7184 64.0488 65.8127 64.0193C69.2 62.918 72.0827 60.6467 73.9426 57.6138C75.8024 54.5809 76.5175 50.9852 75.9593 47.4731C75.4011 43.9611 73.6062 40.7629 70.8972 38.4536C68.1882 36.1442 64.7428 34.8751 61.1803 34.8744L61.1803 34.8744ZM69.8634 61.0029C68.5723 61.9974 67.1191 62.7622 65.5677 63.2638C65.4842 63.2907 65.3979 63.3176 65.3118 63.3445C64.9535 63.4547 64.5765 63.5515 64.1887 63.6348C63.5014 63.7846 62.8036 63.8816 62.1014 63.9251C61.7971 63.9467 61.4873 63.9574 61.1803 63.9574C59.5855 63.9584 58.002 63.6902 56.4967 63.1643L56.3648 63.1186C55.545 62.8246 54.7551 62.4537 54.0054 62.011C51.3944 60.4767 49.3454 58.1468 48.1593 55.3639C46.9732 52.5809 46.7126 49.4916 47.4158 46.5498C48.1191 43.6081 49.7491 40.9691 52.0662 39.0206C54.3834 37.072 57.2656 35.9168 60.2893 35.7246C63.313 35.5323 66.3188 36.3133 68.8649 37.9526C71.411 39.5919 73.3632 42.0032 74.4347 44.8322C75.5061 47.6611 75.6403 50.7584 74.8174 53.6691C73.9946 56.5798 72.2582 59.1503 69.8634 61.0029V61.0029Z" fill="#E6E6E6"/>
<path d="M118.502 135.872H40.0667C39.0792 135.87 38.1325 135.478 37.4343 134.781C36.736 134.084 36.3433 133.139 36.3422 132.154V25.8682C36.3433 24.8825 36.736 23.9375 37.4343 23.2405C38.1325 22.5436 39.0792 22.1515 40.0667 22.1504H118.502C119.489 22.1515 120.436 22.5436 121.134 23.2405C121.832 23.9375 122.225 24.8825 122.226 25.8682V132.154C122.225 133.139 121.832 134.084 121.134 134.781C120.436 135.478 119.489 135.87 118.502 135.872ZM40.0667 22.5878C39.1954 22.5888 38.3601 22.9347 37.744 23.5497C37.1279 24.1647 36.7813 24.9985 36.7803 25.8682V132.154C36.7813 133.023 37.1279 133.857 37.744 134.472C38.3601 135.087 39.1954 135.433 40.0667 135.434H118.502C119.373 135.433 120.208 135.087 120.824 134.472C121.44 133.857 121.787 133.023 121.788 132.154V25.8682C121.787 24.9985 121.44 24.1647 120.824 23.5497C120.208 22.9347 119.373 22.5888 118.502 22.5878L40.0667 22.5878Z" fill="#E6E6E6"/>
<path d="M103.317 49.7547H81.1231C80.6575 49.7547 80.2109 49.57 79.8816 49.2413C79.5523 48.9127 79.3673 48.4669 79.3673 48.002C79.3673 47.5372 79.5523 47.0914 79.8816 46.7627C80.2109 46.434 80.6575 46.2494 81.1231 46.2494H103.317C103.783 46.2494 104.23 46.434 104.559 46.7627C104.888 47.0914 105.073 47.5372 105.073 48.002C105.073 48.4669 104.888 48.9127 104.559 49.2413C104.23 49.57 103.783 49.7547 103.317 49.7547Z" fill="#E6E6E6"/>
<path d="M110.56 55.6701H81.1231C80.6575 55.6701 80.2109 55.4854 79.8816 55.1567C79.5523 54.8281 79.3673 54.3823 79.3673 53.9174C79.3673 53.4526 79.5523 53.0068 79.8816 52.6781C80.2109 52.3494 80.6575 52.1648 81.1231 52.1648H110.56C111.026 52.1648 111.473 52.3494 111.802 52.6781C112.131 53.0068 112.316 53.4526 112.316 53.9174C112.316 54.3823 112.131 54.8281 111.802 55.1567C111.473 55.4854 111.026 55.6701 110.56 55.6701Z" fill="#E6E6E6"/>
<path d="M103.285 78.3573H48.0081C47.5425 78.3573 47.0959 78.1727 46.7666 77.844C46.4373 77.5153 46.2523 77.0695 46.2523 76.6047C46.2523 76.1399 46.4373 75.6941 46.7666 75.3654C47.0959 75.0367 47.5425 74.8521 48.0081 74.8521H103.285C103.751 74.8521 104.198 75.0367 104.527 75.3654C104.856 75.6941 105.041 76.1399 105.041 76.6047C105.041 77.0695 104.856 77.5153 104.527 77.844C104.198 78.1727 103.751 78.3573 103.285 78.3573Z" fill="#E6E6E6"/>
<path d="M110.528 84.2727H48.0081C47.5425 84.2727 47.0959 84.0881 46.7666 83.7594C46.4373 83.4307 46.2523 82.9849 46.2523 82.5201C46.2523 82.0553 46.4373 81.6095 46.7666 81.2808C47.0959 80.9521 47.5425 80.7675 48.0081 80.7675H110.528C110.994 80.7675 111.44 80.9521 111.77 81.2808C112.099 81.6095 112.284 82.0553 112.284 82.5201C112.284 82.9849 112.099 83.4307 111.77 83.7594C111.44 84.0881 110.994 84.2727 110.528 84.2727Z" fill="#E6E6E6"/>
<path d="M103.285 97.8681H48.0081C47.5425 97.8681 47.0959 97.6834 46.7666 97.3547C46.4373 97.0261 46.2523 96.5803 46.2523 96.1154C46.2523 95.6506 46.4373 95.2048 46.7666 94.8761C47.0959 94.5474 47.5425 94.3628 48.0081 94.3628H103.285C103.751 94.3628 104.198 94.5474 104.527 94.8761C104.856 95.2048 105.041 95.6506 105.041 96.1154C105.041 96.5803 104.856 97.0261 104.527 97.3547C104.198 97.6834 103.751 97.8681 103.285 97.8681Z" fill="#E6E6E6"/>
<path d="M110.528 103.782H48.0081C47.5425 103.782 47.0959 103.598 46.7666 103.269C46.4373 102.94 46.2523 102.495 46.2523 102.03C46.2523 101.565 46.4373 101.119 46.7666 100.791C47.0959 100.462 47.5425 100.277 48.0081 100.277H110.528C110.994 100.277 111.44 100.462 111.77 100.791C112.099 101.119 112.284 101.565 112.284 102.03C112.284 102.495 112.099 102.94 111.77 103.269C111.44 103.598 110.994 103.782 110.528 103.782Z" fill="#E6E6E6"/>
<path d="M103.285 117.378H48.0081C47.5425 117.378 47.0959 117.193 46.7666 116.865C46.4373 116.536 46.2523 116.09 46.2523 115.625C46.2523 115.16 46.4373 114.715 46.7666 114.386C47.0959 114.057 47.5425 113.873 48.0081 113.873H103.285C103.751 113.873 104.198 114.057 104.527 114.386C104.856 114.715 105.041 115.16 105.041 115.625C105.041 116.09 104.856 116.536 104.527 116.865C104.198 117.193 103.751 117.378 103.285 117.378Z" fill="#E6E6E6"/>
<path d="M110.528 123.293H48.0081C47.5425 123.293 47.0959 123.109 46.7666 122.78C46.4373 122.451 46.2523 122.005 46.2523 121.541C46.2523 121.076 46.4373 120.63 46.7666 120.301C47.0959 119.973 47.5425 119.788 48.0081 119.788H110.528C110.993 119.789 111.439 119.973 111.768 120.302C112.097 120.631 112.282 121.076 112.282 121.541C112.282 122.005 112.097 122.451 111.768 122.779C111.439 123.108 110.993 123.293 110.528 123.293Z" fill="#E6E6E6"/>
<path d="M151.221 63.4799C151.293 62.814 151.159 62.142 150.835 61.5552C150.511 60.9684 150.014 60.4954 149.412 60.2004L88.9635 30.7095C88.5791 30.5218 88.1614 30.4114 87.7343 30.3849C87.3072 30.3583 86.879 30.4159 86.4742 30.5545C86.0694 30.6931 85.696 30.9099 85.3751 31.1925C85.0543 31.4752 84.7923 31.8182 84.6042 32.2019L84.6031 32.2041L61.9311 78.5073C61.5527 79.2829 61.4979 80.1766 61.7785 80.9925C62.0592 81.8084 62.6526 82.4799 63.4285 82.8598L123.877 112.351C124.654 112.728 125.549 112.783 126.366 112.503C127.184 112.223 127.857 111.631 128.237 110.856L150.909 64.5528C151.075 64.216 151.18 63.853 151.221 63.4799Z" fill="#FEFEFE"/>
<path d="M151.221 63.4799C151.293 62.814 151.159 62.142 150.835 61.5552C150.511 60.9684 150.014 60.4954 149.412 60.2004L88.9635 30.7095C88.5791 30.5218 88.1614 30.4114 87.7343 30.3849C87.3072 30.3583 86.879 30.4159 86.4742 30.5545C86.0694 30.6931 85.696 30.9099 85.3751 31.1925C85.0543 31.4752 84.7923 31.8182 84.6042 32.2019L84.6031 32.2041L61.9311 78.5073C61.5527 79.2829 61.4979 80.1766 61.7785 80.9925C62.0592 81.8084 62.6526 82.4799 63.4285 82.8598L123.877 112.351C124.654 112.728 125.549 112.783 126.366 112.503C127.184 112.223 127.857 111.631 128.237 110.856L150.909 64.5528C151.075 64.216 151.18 63.853 151.221 63.4799ZM127.893 110.688C127.557 111.371 126.963 111.894 126.242 112.141C125.521 112.389 124.731 112.34 124.045 112.007L63.5969 82.5158C62.9122 82.1807 62.3885 81.5882 62.1409 80.8683C61.8932 80.1483 61.9417 79.3597 62.2757 78.6754L84.9477 32.3723C85.2834 31.6888 85.877 31.1661 86.5983 30.9188C87.3195 30.6716 88.1096 30.72 88.7951 31.0534L149.243 60.5443C149.928 60.8794 150.452 61.4719 150.699 62.1919C150.947 62.9118 150.899 63.7004 150.565 64.3847L127.893 110.688Z" fill="#4A382E"/>
<path d="M144.628 65.5858L128.797 97.9179C128.691 98.1338 128.504 98.2989 128.277 98.377C128.049 98.4551 127.8 98.4397 127.584 98.3343H127.584L72.5976 71.5084C72.5583 71.4896 72.5207 71.4675 72.4852 71.4423C72.3049 71.3198 72.1749 71.1365 72.1189 70.9261C72.063 70.7156 72.0849 70.4921 72.1807 70.2965L88.0119 37.9645C88.0642 37.8576 88.137 37.762 88.2263 37.6833C88.3156 37.6045 88.4196 37.544 88.5322 37.5054C88.6449 37.4667 88.7641 37.4506 88.8831 37.4579C89.002 37.4652 89.1183 37.4958 89.2254 37.548L144.211 64.374C144.428 64.4794 144.593 64.6662 144.671 64.8934C144.749 65.1206 144.734 65.3694 144.629 65.5853V65.5853L144.628 65.5858Z" fill="#E6E6E6"/>
<path d="M96.3547 63.9436C100.753 63.9436 104.318 60.3849 104.318 55.995C104.318 51.605 100.753 48.0463 96.3547 48.0463C91.9568 48.0463 88.3916 51.605 88.3916 55.995C88.3916 60.3849 91.9568 63.9436 96.3547 63.9436Z" fill="#FD5457"/>
<path d="M108.014 88.947L72.9168 71.8243C72.8726 71.8034 72.8304 71.7785 72.7908 71.7499L103.443 51.148C103.632 51.0187 103.851 50.9417 104.08 50.925C104.308 50.9082 104.537 50.9523 104.743 51.0527C104.948 51.153 105.124 51.3061 105.251 51.4963C105.378 51.6864 105.452 51.9069 105.466 52.135L107.176 76.83L107.258 78.012L108.014 88.947Z" fill="#4A382E"/>
<path opacity="0.2" d="M108.014 88.9474L96.0309 83.1013L106.089 77.4422L106.814 77.0346L107.176 76.8306L107.258 78.0124L108.014 88.9474Z" fill="#4A382E"/>
<path d="M127.555 98.4813L97.1995 83.6715L107.258 78.0124L107.982 77.6045L121.09 70.2294C121.949 69.7461 123.18 70.2906 123.459 71.2152C123.478 71.278 123.492 71.3419 123.502 71.4065L127.555 98.4813Z" fill="#4A382E"/>
<path d="M33.8933 101.303L37.1949 101.303L38.7659 88.59L33.8925 88.5902L33.8933 101.303Z" fill="#FFB8B8"/>
<path d="M33.0508 100.227L39.5534 100.227H39.5536C40.0978 100.227 40.6367 100.334 41.1395 100.542C41.6423 100.75 42.0991 101.054 42.4839 101.438C42.8687 101.823 43.174 102.279 43.3822 102.78C43.5905 103.282 43.6976 103.82 43.6976 104.363V104.498L33.051 104.498L33.0508 100.227Z" fill="#4A382E"/>
<path d="M8.22815 99.2042L11.6491 99.872L15.8582 87.0188L10.8094 86.033L8.22815 99.2042Z" fill="#FFB8B8"/>
<path d="M7.57427 97.9194L14.3113 99.2349L14.3116 99.2349C14.8754 99.345 15.412 99.5649 15.8907 99.882C16.3694 100.199 16.7808 100.607 17.1015 101.083C17.4222 101.559 17.6458 102.093 17.7596 102.655C17.8735 103.217 17.8753 103.796 17.765 104.359L17.7377 104.498L6.70715 102.344L7.57427 97.9194Z" fill="#4A382E"/>
<path d="M38.6974 57.4498C38.5856 57.0706 38.3919 56.7206 38.1299 56.4242C37.8679 56.1279 37.544 55.8925 37.181 55.7347C36.818 55.5768 36.4248 55.5003 36.029 55.5106C35.6332 55.5208 35.2445 55.6176 34.8902 55.794L28.0077 49.0786L27.0581 53.9801L33.7394 59.6057C34.0758 60.1801 34.6116 60.6115 35.2453 60.8179C35.879 61.0244 36.5666 60.9917 37.1777 60.7259C37.7888 60.4602 38.2811 59.9799 38.5612 59.3761C38.8413 58.7722 38.8897 58.0869 38.6974 57.4498Z" fill="#FFB8B8"/>
<path d="M13.1626 22.8847C16.8159 22.8847 19.7775 19.9284 19.7775 16.2817C19.7775 12.635 16.8159 9.67871 13.1626 9.67871C9.50923 9.67871 6.54761 12.635 6.54761 16.2817C6.54761 19.9284 9.50923 22.8847 13.1626 22.8847Z" fill="#FFB8B8"/>
<path d="M11.7728 22.9856C12.1243 23.1391 12.844 20.3436 12.5216 19.7845C12.0422 18.953 12.0705 18.959 11.7522 18.4088C11.4339 17.8587 11.3627 17.1057 11.7749 16.6217C12.1871 16.1377 13.1409 16.2019 13.329 16.8088C13.208 15.656 14.3503 14.7294 15.4817 14.469C16.6132 14.2086 17.8067 14.3703 18.9444 14.1386C20.2648 13.8696 21.6385 12.7649 21.1117 11.3156C21.0213 11.0743 20.886 10.8522 20.7128 10.6612C20.1042 9.97808 19.2528 9.6864 18.4203 9.40437C16.6885 8.81764 14.9094 8.22354 13.0817 8.2883C11.5758 8.3669 10.1255 8.88199 8.90828 9.77054C7.69108 10.6591 6.75976 11.8825 6.22831 13.2912C6.10236 13.6436 6.00478 14.0055 5.93651 14.3734C5.30918 17.7404 7.26798 21.0615 10.4494 22.3437L11.7728 22.9856Z" fill="#4A382E"/>
<path d="M10.1493 59.2589C9.98054 59.1571 9.84533 59.0082 9.76026 58.8307C9.67519 58.6532 9.64397 58.4547 9.67043 58.2597L6.68547 43.5L3.65975 32.1726H3.65981C3.32764 30.9313 3.42796 29.6143 3.94432 28.4375C4.46068 27.2606 5.3624 26.294 6.50156 25.696L8.50186 23.8068L12.8656 25.6834L14.9392 27.7879C16.4264 28.5107 17.7457 29.5362 18.8122 30.7984C19.8787 32.0605 20.6688 33.5315 21.1319 35.1167L24.4576 46.4764L32.1381 57.8824C32.2663 58.0725 32.3263 58.3003 32.3083 58.5288C32.2902 58.7572 32.1952 58.9728 32.0386 59.1405C30.9701 60.2878 10.1493 59.2589 10.1493 59.2589Z" fill="#4A382E"/>
<path d="M30.2713 58.2102L18.9458 50.3764C17.4022 49.3012 16.2847 47.7203 15.7875 45.9082L12.604 34.3053C12.4855 33.8803 12.4535 33.4358 12.51 32.9982C12.5665 32.5607 12.7103 32.1388 12.9329 31.7577C13.2352 31.2313 13.6801 30.8008 14.2165 30.5155C14.7529 30.2302 15.3591 30.1017 15.9654 30.1449C16.5716 30.188 17.1534 30.401 17.6439 30.7593C18.1343 31.1176 18.5136 31.6068 18.738 32.1706L23.4592 43.763L33.5186 53.2924C33.6318 53.4296 33.7071 53.594 33.7371 53.7692C33.767 53.9444 33.7505 54.1244 33.6893 54.2913L31.7735 57.7101C31.707 57.9071 31.5803 58.0784 31.4113 58.1999C31.2424 58.3215 31.0395 58.3871 30.8312 58.3877C30.6307 58.3875 30.4352 58.3255 30.2713 58.2102Z" fill="#4A382E"/>
<path d="M6.74277 97.2372C6.65018 97.1048 6.59089 96.952 6.56991 96.7918C6.54893 96.6317 6.56688 96.4688 6.62224 96.3171L11.8616 77.3048L12.2489 58.6756L29.8862 57.4682L29.9718 57.4624L35.2841 67.0731C36.9473 70.0779 37.9654 73.3955 38.2737 76.8146L40.0243 95.9639C40.0508 96.2242 39.9739 96.4845 39.8102 96.6888C39.6465 96.8931 39.409 97.0252 39.1488 97.0566L33.8308 97.5615C33.5745 97.5926 33.3163 97.5226 33.111 97.3663C32.9058 97.2101 32.7699 96.9799 32.7322 96.725L30.5727 77.2657L22.8027 64.1611L20.1946 77.9575L14.7911 97.0099C14.7204 97.2001 14.5935 97.3643 14.4271 97.4808C14.2608 97.5972 14.0629 97.6605 13.8597 97.662L7.55738 97.6646C7.39692 97.6654 7.23873 97.6268 7.09669 97.5523C6.95466 97.4778 6.83313 97.3696 6.74277 97.2372Z" fill="#4A382E"/>
<path d="M141.791 159.767H8.88781C6.53143 159.764 4.27233 158.828 2.60612 157.165C0.939908 155.502 0.00266176 153.247 0 150.895V78.0394C0.00266176 75.6873 0.939908 73.4323 2.60612 71.7691C4.27233 70.1059 6.53143 69.1704 8.88781 69.1677H25.1829C27.3938 69.1658 29.5258 69.9884 31.1606 71.4743L48.8316 84.0697C49.9837 85.1206 51.4883 85.7027 53.0489 85.7013H142.617C143.795 85.7014 144.961 85.9352 146.048 86.3891C147.135 86.8431 148.12 87.5083 148.947 88.3458C149.774 89.1834 150.426 90.1768 150.865 91.2681C151.304 92.3594 151.521 93.5269 151.504 94.7027L150.678 151.025C150.635 153.352 149.68 155.569 148.019 157.203C146.359 158.837 144.123 159.757 141.791 159.767Z" fill="#FEFEFE"/>
<path d="M140.611 155.466H9.67414C8.5374 155.464 7.4476 155.013 6.64381 154.211C5.84001 153.408 5.38788 152.32 5.3866 151.186V77.139C5.38788 76.0044 5.84002 74.9165 6.64381 74.1142C7.4476 73.3119 8.53741 72.8605 9.67414 72.8593C10.6796 72.8604 11.6435 73.2596 12.3544 73.9692C13.0654 74.6789 13.4653 75.6411 13.4664 76.6447V146.078C13.4676 147.141 13.8914 148.161 14.6447 148.913C15.398 149.665 16.4193 150.088 17.4846 150.089H140.169C140.778 150.082 141.372 150.279 141.856 150.649C142.34 151.019 142.686 151.54 142.839 152.129C143.01 152.687 142.989 153.287 142.779 153.832C142.568 154.377 142.181 154.836 141.679 155.135C141.361 155.342 140.991 155.457 140.611 155.466Z" fill="#E6E6E6"/>
<path opacity="0.75" d="M79.2534 101.453C82.8399 101.453 86.3459 102.517 89.328 104.509C92.3101 106.502 94.6344 109.334 96.0069 112.647C97.3794 115.961 97.7385 119.607 97.0388 123.125C96.3391 126.642 94.612 129.873 92.0759 132.409C89.5399 134.946 86.3088 136.673 82.7911 137.372C79.2735 138.072 75.6274 137.713 72.3138 136.34C69.0003 134.968 66.1682 132.644 64.1756 129.661C62.1831 126.679 61.1195 123.173 61.1195 119.587C61.1237 114.779 63.0356 110.169 66.4355 106.769C69.8353 103.369 74.4453 101.457 79.2534 101.453ZM79.2534 99.0659C75.1947 99.0659 71.2272 100.269 67.8526 102.524C64.4779 104.779 61.8477 107.984 60.2945 111.734C58.7413 115.484 58.3349 119.61 59.1267 123.59C59.9185 127.571 61.873 131.227 64.7429 134.097C67.6128 136.967 71.2693 138.922 75.2499 139.714C79.2306 140.505 83.3567 140.099 87.1064 138.546C90.8561 136.993 94.0611 134.362 96.3159 130.988C98.5708 127.613 99.7743 123.646 99.7743 119.587C99.7743 114.144 97.6123 108.925 93.7639 105.076C89.9155 101.228 84.6959 99.0659 79.2534 99.0659Z" fill="#FD5457"/>
<path d="M141.791 159.767H8.88781C6.53143 159.764 4.27233 158.828 2.60612 157.165C0.939908 155.502 0.00266176 153.247 0 150.895V78.0394C0.00266176 75.6873 0.939908 73.4323 2.60612 71.7691C4.27233 70.1059 6.53143 69.1704 8.88781 69.1677H25.1829C27.3938 69.1658 29.5258 69.9884 31.1606 71.4743L48.8316 84.0697C49.9837 85.1206 51.4883 85.7027 53.0489 85.7013H142.617C143.795 85.7014 144.961 85.9352 146.048 86.3891C147.135 86.8431 148.12 87.5083 148.947 88.3458C149.774 89.1834 150.426 90.1768 150.865 91.2681C151.304 92.3594 151.521 93.5269 151.504 94.7027L150.678 151.025C150.635 153.352 149.68 155.569 148.019 157.203C146.359 158.837 144.123 159.757 141.791 159.767ZM8.88781 69.7054C6.67425 69.7079 4.55207 70.5868 2.98685 72.1492C1.42162 73.7115 0.541171 75.8299 0.538655 78.0394V150.895C0.541171 153.104 1.42162 155.223 2.98685 156.785C4.55207 158.348 6.67425 159.226 8.88781 159.229H141.791C143.982 159.22 146.082 158.356 147.642 156.821C149.202 155.286 150.099 153.203 150.14 151.017L150.965 94.6949C150.981 93.5903 150.777 92.4935 150.365 91.4683C149.953 90.4432 149.34 89.51 148.563 88.7232C147.787 87.9364 146.861 87.3116 145.84 86.8851C144.819 86.4586 143.723 86.239 142.617 86.239H53.0489C51.3595 86.2405 49.7304 85.6124 48.4805 84.4778L30.8096 71.8824C29.2725 70.4803 27.2651 69.7036 25.1829 69.7054H8.88781Z" fill="#4A382E"/>
<path d="M153.055 161.185H149.753L148.721 148.472L153.055 148.472L153.055 161.185Z" fill="#FFB8B8"/>
<path d="M153.897 164.38L143.25 164.38V164.246C143.25 163.702 143.357 163.164 143.565 162.663C143.774 162.161 144.079 161.705 144.464 161.321C144.849 160.937 145.305 160.632 145.808 160.424C146.311 160.216 146.85 160.109 147.394 160.109H147.394L153.897 160.109L153.897 164.38Z" fill="#4A382E"/>
<path d="M189.952 161.185H186.65L185.08 148.472L189.953 148.472L189.952 161.185Z" fill="#FFB8B8"/>
<path d="M190.795 164.38L180.148 164.38V164.246C180.148 163.702 180.256 163.164 180.464 162.663C180.672 162.161 180.977 161.705 181.362 161.321C181.747 160.937 182.204 160.632 182.707 160.424C183.209 160.216 183.748 160.109 184.292 160.109H184.293L190.795 160.109L190.795 164.38Z" fill="#4A382E"/>
<path d="M179.096 121.884C179.551 121.351 179.808 120.677 179.823 119.976C179.837 119.275 179.608 118.591 179.174 118.039C179.086 117.934 178.99 117.836 178.886 117.746L181.373 108.581L177.228 109.953L175.501 118.446C175.215 118.97 175.088 119.566 175.137 120.161C175.186 120.755 175.408 121.323 175.775 121.793C175.968 122.047 176.215 122.255 176.499 122.4C176.782 122.546 177.095 122.626 177.414 122.635C177.732 122.644 178.049 122.581 178.34 122.451C178.631 122.321 178.89 122.127 179.096 121.884Z" fill="#FFB8B8"/>
<path d="M178.936 116.246C178.884 116.246 178.832 116.242 178.781 116.235L176.621 115.909C176.453 115.881 176.293 115.815 176.153 115.718C176.013 115.622 175.895 115.495 175.809 115.348C175.622 115.035 175.555 114.666 175.62 114.307L178.315 99.2839L176.487 89.6322C176.135 87.7748 177.044 85.8988 178.602 85.2684C179.064 85.0798 179.567 85.0139 180.062 85.0772C180.558 85.1405 181.028 85.3309 181.428 85.6298C181.859 85.9557 182.216 86.3685 182.477 86.8413C182.738 87.3141 182.896 87.8364 182.942 88.3743L184.235 100.681L184.22 100.734L180.057 115.318C179.997 115.574 179.855 115.803 179.653 115.97C179.45 116.138 179.199 116.235 178.936 116.246Z" fill="#FD5457"/>
<path d="M178.298 79.9502C181.952 79.9502 184.913 76.994 184.913 73.3472C184.913 69.7005 181.952 66.7443 178.298 66.7443C174.645 66.7443 171.683 69.7005 171.683 73.3472C171.683 76.994 174.645 79.9502 178.298 79.9502Z" fill="#FFB8B8"/>
<path d="M174.911 104.041C174.747 104.041 174.583 104.01 174.429 103.951L163.974 99.9368C163.691 99.829 163.453 99.6288 163.298 99.3688C163.144 99.1087 163.082 98.8041 163.123 98.5045L163.543 95.361C163.293 94.2466 163.316 93.0888 163.609 91.9851C163.902 90.8814 164.457 89.8641 165.226 89.019L165.48 88.7394L168.574 83.1089C168.783 82.7274 169.066 82.3911 169.407 82.1194C169.747 81.8477 170.138 81.6459 170.557 81.5258C170.976 81.4056 171.414 81.3694 171.847 81.4193C172.28 81.4692 172.699 81.6042 173.08 81.8164L178.542 84.8634C179.261 85.2639 179.804 85.9184 180.064 86.6983C180.799 88.9061 180.745 91.2999 179.91 93.4721L176.17 103.179C176.071 103.432 175.898 103.649 175.673 103.803C175.449 103.957 175.183 104.04 174.911 104.041Z" fill="#FD5457"/>
<path d="M147.511 158.064L147.497 158.061C147.318 158.027 147.149 157.957 146.998 157.856C146.848 157.754 146.719 157.624 146.621 157.471C146.522 157.319 146.455 157.149 146.424 156.97C146.393 156.792 146.399 156.609 146.441 156.432L154.453 121.472C155.764 115.93 157.577 110.518 159.867 105.303L163.275 97.545L175.995 103.341L177.811 106.657C179.227 110.349 179.955 114.269 179.959 118.223L192.883 156.03C192.946 156.215 192.968 156.411 192.948 156.605C192.927 156.799 192.865 156.986 192.765 157.153C192.665 157.321 192.529 157.465 192.368 157.575C192.206 157.685 192.023 157.758 191.83 157.79L184.755 157.71C184.688 157.722 184.621 157.728 184.553 157.727C184.285 157.728 184.023 157.647 183.801 157.497C183.579 157.347 183.407 157.133 183.308 156.885L168.534 118.659C168.513 118.609 168.477 118.566 168.431 118.536C168.385 118.506 168.33 118.491 168.275 118.493C168.222 118.494 168.169 118.511 168.126 118.543C168.082 118.574 168.05 118.619 168.032 118.669L154.014 157.085C153.907 157.384 153.696 157.634 153.421 157.792C153.145 157.951 152.822 158.006 152.509 157.948L147.511 158.064Z" fill="#4A382E"/>
<path d="M157.183 115.072C157.556 114.94 157.896 114.727 158.178 114.45C158.46 114.172 158.677 113.836 158.815 113.466C158.953 113.095 159.007 112.699 158.975 112.305C158.943 111.911 158.824 111.529 158.628 111.186L164.964 103.954L160.008 103.279L154.752 110.25C154.196 110.617 153.794 111.175 153.623 111.818C153.451 112.461 153.522 113.145 153.822 113.739C154.122 114.334 154.629 114.798 155.249 115.043C155.869 115.289 156.557 115.299 157.183 115.072Z" fill="#FFB8B8"/>
<path d="M160.17 109.977C159.949 109.977 159.732 109.923 159.538 109.82L157.308 108.633C157.145 108.546 157.001 108.426 156.886 108.281C156.771 108.135 156.687 107.968 156.64 107.789C156.592 107.61 156.583 107.423 156.611 107.241C156.64 107.058 156.705 106.883 156.805 106.726L165.039 93.7744L166.467 84.0004C166.541 83.4952 166.717 83.0103 166.984 82.5749C167.251 82.1395 167.604 81.7628 168.021 81.4674C168.438 81.1721 168.911 80.9644 169.411 80.8568C169.911 80.7492 170.428 80.7441 170.93 80.8416C171.432 80.9391 171.909 81.1373 172.332 81.4242C172.755 81.7111 173.115 82.0806 173.391 82.5106C173.667 82.9405 173.852 83.4218 173.936 83.9254C174.02 84.429 174.001 84.9443 173.879 85.4403L170.931 97.4872L161.219 109.479C161.092 109.635 160.933 109.761 160.751 109.847C160.57 109.933 160.371 109.978 160.17 109.977Z" fill="#FD5457"/>
<path d="M172.344 67.8995C173.11 65.3949 177.53 64.2775 181.205 65.3166C184.879 66.3558 187.519 69.0804 188.133 71.7443C189.494 77.6432 182.397 82.4308 183.683 88.3304C184.534 92.2336 189.456 95.9241 195 96.8154C188.89 98.0913 181.433 96.9698 175.767 93.9228C172.241 92.0265 169.283 89.1648 169.327 86.2783C169.354 84.5306 170.468 82.9852 171.83 81.65C173.192 80.3149 174.823 79.128 176.073 77.7343C177.323 76.3407 178.189 74.672 177.824 72.9028C177.459 71.1337 175.606 69.2887 173.112 68.774L172.344 67.8995Z" fill="#4A382E"/>
<g opacity="0.75">
<path d="M88.8061 122.064V126.309C88.8061 126.872 88.5825 127.412 88.1844 127.81C87.7863 128.209 87.2463 128.432 86.6833 128.432H71.8233C71.2603 128.432 70.7203 128.209 70.3222 127.81C69.9241 127.412 69.7004 126.872 69.7004 126.309V122.064" stroke="#FD5457" stroke-width="3.5" stroke-linecap="round" stroke-linejoin="round"/>
<path d="M84.5604 114.634L79.2533 109.326L73.9462 114.634" stroke="#FD5457" stroke-width="3.5" stroke-linecap="round" stroke-linejoin="round"/>
<path d="M79.2533 109.326V122.064" stroke="#FD5457" stroke-width="3.5" stroke-linecap="round" stroke-linejoin="round"/>
</g>
</svg>
