<svg width="23" height="20" viewBox="0 0 23 20" fill="none" xmlns="http://www.w3.org/2000/svg">
<path d="M16.1579 19V17.1053C16.1579 16.1002 15.7586 15.1364 15.048 14.4257C14.3373 13.715 13.3735 13.3158 12.3684 13.3158H4.78947C3.78444 13.3158 2.82058 13.715 2.10991 14.4257C1.39925 15.1364 1 16.1002 1 17.1053V19" stroke="#CCCCCC" stroke-width="1.5" stroke-linecap="round" stroke-linejoin="round"/>
<path d="M8.57902 9.52634C10.6719 9.52634 12.3685 7.82973 12.3685 5.73686C12.3685 3.64399 10.6719 1.94739 8.57902 1.94739C6.48616 1.94739 4.78955 3.64399 4.78955 5.73686C4.78955 7.82973 6.48616 9.52634 8.57902 9.52634Z" stroke="#CCCCCC" stroke-width="1.5" stroke-linecap="round" stroke-linejoin="round"/>
<path d="M19.4705 1C20.7266 2.25642 21.4322 3.96026 21.4322 5.73684C21.4322 7.51342 20.7266 9.21726 19.4705 10.4737M17.1055 3.36507C17.7335 3.99328 18.0863 4.8452 18.0863 5.73349C18.0863 6.62178 17.7335 7.4737 17.1055 8.10191" stroke="#CCCCCC" stroke-width="1.5" stroke-linecap="round" stroke-linejoin="round"/>
</svg>
